<svg width="51" height="51" viewBox="0 0 51 51" fill="none" xmlns="http://www.w3.org/2000/svg">
<circle cx="25.5" cy="25.5697" r="25" fill="#194F94"/>
<path d="M21.5933 22.4502C21.6656 22.6407 21.6407 32.5692 21.5678 32.65C21.495 32.7306 18.4373 32.7584 18.2907 32.6798C18.2171 32.6404 18.1701 22.4521 18.2432 22.3789C18.2569 22.3651 19.0081 22.3539 19.9124 22.3539H21.5567L21.5933 22.4502Z" fill="white"/>
<path d="M31.1187 22.2173C32.1989 22.4373 33.1979 23.2814 33.636 24.3442C33.8083 24.7625 33.9176 25.1295 33.9658 25.452C33.9843 25.576 34.0154 25.7788 34.0348 25.9027C34.0906 26.2578 34.0874 32.6176 34.0315 32.6736C33.9647 32.7405 30.8028 32.7382 30.7473 32.6713C30.7209 32.6394 30.7023 31.6348 30.6909 29.62C30.6714 26.2069 30.6808 26.3206 30.3617 25.6023C29.9774 24.7371 28.6504 24.5194 27.7553 25.1749C27.5797 25.3034 27.2341 25.7118 27.187 25.8464C27.1762 25.8773 27.1318 25.9787 27.0885 26.0717C27.0106 26.2386 27.0095 26.2788 26.9987 29.4416C26.9879 32.5818 26.9863 32.6434 26.9139 32.6822C26.8084 32.7387 23.711 32.7155 23.6533 32.6577C23.5805 32.5847 23.5815 22.4368 23.6543 22.3904C23.6883 22.3687 24.3538 22.3581 25.3413 22.3636L26.9722 22.3726L26.9909 23.0455C27.0128 23.8322 27.0196 23.8423 27.2858 23.4838C28.1073 22.3771 29.5547 21.8989 31.1187 22.2173Z" fill="white"/>
<path d="M20.4308 17.3969C22.0341 17.7015 22.335 19.9343 20.87 20.6555C19.7719 21.196 18.4256 20.7045 18.1042 19.6458C17.6831 18.2588 18.8797 17.1022 20.4308 17.3969Z" fill="white"/>
</svg>
